        <svg
          width="130px"
          height="45px"
          viewBox="0 0 130 45"
          version="1.1"
          xmlns="http://www.w3.org/2000/svg"
          xmlns:xlink="http://www.w3.org/1999/xlink"
        >
          <title>logo-mirum</title>
          <g
            id="fase-1"
            stroke="none"
            stroke-width="1"
            fill="none"
            fill-rule="evenodd"
          >
            <g
              id="home"
              transform="translate(-72.000000, -54.000000)"
              fill="#2D2D2D"
            >
              <g id="header" transform="translate(72.000000, 54.000000)">
                <path
                  d="M40.822908,18.9385795 C41.7161903,16.8357362 42.9444299,16.4213724 43.6402072,16.5591056 L43.7317041,16.5812028 C43.8197376,16.6065086 43.8971369,16.6411201 43.9617023,16.682156 L44.1025586,16.7825509 L44.1025586,16.7825509 L44.3119588,16.9392151 C45.5630969,17.8981991 46.0781559,18.7416169 46.242418,20.3578989 L46.266041,20.6269135 C46.269486,20.6729251 46.2726899,20.7195364 46.2756604,20.7667648 L46.2907433,21.0576817 L46.2907433,21.0576817 L46.300589,21.3642525 L46.300589,21.3642525 L46.3055628,21.687319 L46.3055628,21.687319 L46.3060297,22.0277231 L46.3060297,22.0277231 L46.2990783,22.5726791 C46.2978339,22.6356074 46.2964397,22.6993459 46.2949033,22.763912 C46.2496306,24.6710363 45.9156144,26.6936453 45.552103,28.7007487 L45.27799,30.2011222 C45.0667907,31.3626343 44.8676091,32.5077269 44.7319047,33.6103991 C44.5829048,34.8201537 45.1149043,36.3055989 46.4034032,35.8149292 C46.7745215,35.6738366 47.1109366,35.4560223 47.4445719,35.1127741 L47.5622621,34.98634 C47.7191671,34.8106052 47.8762881,34.6058236 48.0369521,34.3669186 L48.1581664,34.1812624 L48.1581664,34.1812624 L48.2810212,33.982334 L48.2810212,33.982334 L48.4058284,33.7696575 C48.4268096,33.7330394 48.4478852,33.6958285 48.4690616,33.6580151 L48.5973822,33.4238241 C48.618988,33.3835607 48.6407076,33.3426748 48.6625475,33.3011567 L48.7950832,33.0443804 L48.7950832,33.0443804 L48.9308189,32.7719524 L48.9308189,32.7719524 L49.0700664,32.4833966 L49.0700664,32.4833966 L49.2131376,32.1782373 L49.2131376,32.1782373 L49.4355962,31.6883254 L49.4355962,31.6883254 L49.5895913,31.3395749 L49.5895913,31.3395749 L49.7485018,30.9725551 L49.7485018,30.9725551 L49.9967661,30.3867293 L49.9967661,30.3867293 L50.3838169,29.4489 L50.3838169,29.4489 L50.5846566,28.9377451 L50.5846566,28.9377451 L50.811549,28.3381678 L50.811549,28.3381678 L51.1486358,27.4211062 L51.1486358,27.4211062 L51.6465669,26.0230625 L51.6465669,26.0230625 L51.8895388,25.3171845 L51.8895388,25.3171845 L52.0201608,24.918858 L52.0201608,24.918858 L52.0512358,24.8126964 L52.0512358,24.8126964 L52.0573983,24.7818283 L52.0573983,24.7818283 C52.0573983,24.7759374 52.0527205,24.76641 52.0439123,24.7534108 L52.0056445,24.7041627 L52.0056445,24.7041627 L51.7239839,24.3820242 L51.7239839,24.3820242 L51.6148551,24.2512703 L51.6148551,24.2512703 L51.4990143,24.1051223 C51.0659748,23.5422312 50.563832,22.6888226 50.7213995,21.7641601 C50.9873992,20.2085481 51.9188984,19.2411425 53.4798971,18.9435558 L53.6678748,18.9101151 L53.6678748,18.9101151 L53.8561615,18.8817216 L53.8561615,18.8817216 L54.0439668,18.8587793 C54.0751836,18.8554323 54.1063475,18.8523292 54.137442,18.8494785 L54.3230435,18.8354699 C55.5838259,18.7613582 56.6725143,19.139754 56.4543945,20.5504244 C56.4149715,20.7568479 56.3444834,20.9808101 56.2668833,21.2050859 L56.0779908,21.7387936 L56.0779908,21.7387936 L56.0343799,21.8687426 L56.0343799,21.8687426 L55.9951147,21.9943475 L55.9951147,21.9943475 L55.9614463,22.1147088 L55.9614463,22.1147088 L55.9346258,22.2289265 C55.838878,22.6907853 55.9540433,22.9692281 56.6873943,22.7713765 L57.2201606,22.6252072 L57.2201606,22.6252072 L58.5820982,22.2395355 C58.6510384,22.2203116 58.7192487,22.2014549 58.7869246,22.1829655 L59.1881283,22.0764359 C59.8513201,21.9062325 60.5001291,21.7727621 61.3298903,21.6760784 C62.8414977,21.5012132 63.947646,22.7076593 64.7226314,24.0094916 L64.848742,24.2271263 C64.8692537,24.2634725 64.889513,24.2998371 64.9095215,24.3361927 L65.0265765,24.5539965 L65.0265765,24.5539965 L65.1376899,24.7702593 L65.1376899,24.7702593 L65.2429382,24.9836581 C65.2599951,25.0189124 65.2768108,25.0539923 65.2933869,25.0888701 C65.8047982,26.1642921 65.6551772,26.9844729 65.2105074,27.9410613 L65.1069839,28.1560411 L65.1069839,28.1560411 L64.9946393,28.3764668 L64.9946393,28.3764668 L64.8115354,28.7194055 L64.8115354,28.7194055 L64.3318388,29.5937115 L64.3318388,29.5937115 L64.1853106,29.8668694 L64.1853106,29.8668694 L64.036209,30.1521589 L64.036209,30.1521589 L63.8854264,30.450535 L63.8854264,30.450535 L63.7338554,30.7629528 L63.7338554,30.7629528 L63.3957167,31.4972472 L63.3957167,31.4972472 L62.6839051,33.0032148 L62.6839051,33.0032148 L62.3813234,33.6540247 L62.3813234,33.6540247 L62.2303865,33.9865662 L62.2303865,33.9865662 L62.007363,34.4920212 L62.007363,34.4920212 L61.8624593,34.8322385 L61.8624593,34.8322385 L61.7217979,35.1741087 L61.7217979,35.1741087 L61.5864239,35.5168218 L61.5864239,35.5168218 L61.4573824,35.8595679 L61.4573824,35.8595679 L61.3357185,36.2015371 C60.6887717,38.0787463 60.4240065,39.8839505 61.3238903,41.0107529 C61.6759284,41.4516666 62.3519184,41.2333993 63.1533281,40.619671 L63.333403,40.4768844 C63.3940623,40.4271905 63.4553291,40.3754339 63.5171227,40.3217217 L63.7040032,40.154826 L63.7040032,40.154826 L63.8935603,39.9768403 C63.9253493,39.9462876 63.9572297,39.9152996 63.9891913,39.8838897 L64.1818555,39.690475 C64.2141019,39.6574311 64.2464093,39.6239922 64.2787677,39.5901716 L64.4734497,39.3827749 C64.5059718,39.3474811 64.5385248,39.3118324 64.5710985,39.2758423 L64.7667089,39.0559105 L64.7667089,39.0559105 L64.962333,38.828426 C64.9949113,38.7899183 65.02747,38.7511226 65.059999,38.7120525 L65.254736,38.4744447 L65.254736,38.4744447 L65.4482764,38.2308919 L65.4482764,38.2308919 L65.6401361,37.9820373 L65.6401361,37.9820373 L65.8298309,37.728524 L65.8298309,37.728524 L66.0168765,37.4709952 L66.0168765,37.4709952 L66.200789,37.2100938 L66.200789,37.2100938 L66.3810841,36.9464631 L66.3810841,36.9464631 L66.5572777,36.6807461 L66.5572777,36.6807461 L66.7288856,36.4135861 L66.7288856,36.4135861 L66.9579041,36.0484946 L66.9579041,36.0484946 L67.1866206,35.6770842 L67.1866206,35.6770842 L67.4147567,35.2983129 C67.4906744,35.1707132 67.5664489,35.0417129 67.642034,34.9111385 L67.8681742,34.5145188 C67.905754,34.4475705 67.9432749,34.3801852 67.9807309,34.3123413 L68.2046436,33.8995997 L68.2046436,33.8995997 L68.4267232,33.4748075 C69.3110047,31.7501482 70.1446134,29.7112633 70.847382,27.0580181 C70.883382,26.8646863 70.9244445,26.6884296 70.9766866,26.5114032 L71.0354444,26.3261813 L71.0354444,26.3261813 L71.0368819,26.3185301 L71.1111034,26.1185005 C71.1379372,26.0496033 71.1670742,25.9781061 71.1991441,25.9028716 L71.3047825,25.6648185 C71.3240653,25.6228951 71.3442388,25.5797531 71.3653816,25.5352501 C71.9736569,24.2466116 73.2274965,23.7897611 74.1678682,23.6195901 L74.378411,23.5846873 L74.378411,23.5846873 L74.5958145,23.5532526 C74.6315198,23.5484791 74.6669572,23.5439437 74.7021213,23.5396542 L74.9097827,23.5169309 L74.9097827,23.5169309 L75.1106248,23.5004857 C76.5907202,23.4016309 77.4735461,23.8642522 77.2663765,25.6029287 C77.1180641,26.8519344 76.9544939,27.9772151 76.7853427,29.0711448 L76.3564375,31.7941111 C76.2133266,32.715633 76.07194,33.6688403 75.9378776,34.7071902 C75.8473777,35.4198058 75.8238777,36.171237 75.9033777,36.9082368 C76.0243776,38.0358814 76.5053771,38.4956976 77.4578763,38.1931345 C78.3763755,37.8995289 79.2878747,37.4148309 79.9888741,36.7624293 C81.5085698,35.351328 82.3493174,33.4615542 83.0165585,31.4609313 L83.1736238,30.9788419 L83.1736238,30.9788419 L83.3255792,30.4936258 L83.3255792,30.4936258 L83.4739773,30.006413 L83.4739773,30.006413 L83.620371,29.5183334 C83.7335632,29.1389047 83.8461163,28.7317555 83.9593086,28.3102059 L84.4185153,26.5787785 C84.6528523,25.7062369 84.8965622,24.8471336 85.1598696,24.1080284 L85.2582673,23.8384845 C85.2749858,23.7938651 85.29187,23.7494062 85.3089298,23.7051198 L85.4134725,23.4415699 C85.4668746,23.3109279 85.5220308,23.1820583 85.5792026,23.0552897 L85.6963112,22.8046512 C86.4560013,21.2362497 87.5670551,20.0400981 89.5608658,19.884089 C91.0043646,19.7706279 91.8223639,20.4777695 91.709864,22.0219358 C91.6037102,23.472891 91.4049648,25.088932 91.197524,26.659454 L90.890328,28.9547723 L90.890328,28.9547723 L90.8188647,29.4994232 C90.481865,32.0985792 90.1093654,34.6838013 89.7528657,37.2839525 C89.6443658,38.0751946 90.9193647,38.9341154 92.4683633,38.0348861 C93.2510025,37.5370047 93.9636418,36.5837431 94.6360339,35.4642574 L94.8470651,35.1055474 C94.8820256,35.0449539 94.9168832,34.9839843 94.9516424,34.9226806 L95.1590504,34.5511884 L95.1590504,34.5511884 L95.4661866,33.9833473 L95.4661866,33.9833473 L95.668597,33.6006691 L95.668597,33.6006691 L96.3267284,32.3409948 C96.8063452,31.4281068 97.2775686,30.5661987 97.7538587,29.8860869 L98.300383,29.105726 C98.3451928,29.0421108 98.3898701,28.9788831 98.4344534,28.9160682 L98.7011314,28.5443342 C99.6327009,27.262018 100.556606,26.1840439 101.827855,25.5447052 C103.147354,24.8818533 103.931853,25.4864818 104.014353,27.0341316 L104.032983,27.4320388 L104.032983,27.4320388 L104.046588,27.8174972 L104.046588,27.8174972 L104.061182,28.4001458 L104.061182,28.4001458 L104.089853,29.7387864 L104.089853,29.7387864 C104.31858,29.4602909 104.534812,29.2219353 104.742947,29.0003177 L105.199444,28.5200505 C105.348294,28.3627947 105.494445,28.2050813 105.639754,28.0370375 L105.784852,27.8651847 C107.28835,26.0443324 108.990349,24.6360208 111.262847,24.285187 C112.592346,24.0796631 113.494345,24.5006637 113.858845,25.8577187 C114.020845,26.4601078 114.14147,27.0787944 114.254469,27.7231094 L114.456924,28.9125704 C114.503324,29.1839416 114.551744,29.460309 114.604344,29.7422699 L116.252061,27.9389466 L116.252061,27.9389466 L116.886842,27.2376649 L116.886842,27.2376649 C117.922841,26.0866315 119.10534,25.2933988 120.561839,25.013727 C122.316337,24.6763294 123.804336,25.4008883 123.894336,27.285438 C123.942717,28.2829861 123.896186,29.1616612 123.837507,30.0109876 L123.770731,30.9588194 C123.70054,32.0086999 123.65986,33.065179 123.810336,34.3031093 C123.951472,35.4716505 124.104658,35.9819295 124.494728,36.842145 L124.633833,37.1432271 L124.633833,37.1432271 L124.792335,37.4785284 L124.799835,37.4800213 C125.473904,38.8965353 126.24236,38.9610588 126.979424,38.56595 L127.101956,38.4959957 C127.122322,38.4836783 127.142659,38.4710446 127.162963,38.4581135 L127.28438,38.377113 C127.304545,38.3630694 127.324671,38.3487667 127.344758,38.3342242 L127.464769,38.2442431 L127.464769,38.2442431 L127.583682,38.1494226 L127.583682,38.1494226 L127.759707,38.0001261 L127.759707,38.0001261 L127.932531,37.845105 L127.932531,37.845105 L128.157231,37.6348605 L128.157231,37.6348605 L128.266832,37.5302826 C128.33042,37.4691611 128.393891,37.4095342 128.456732,37.3517659 L128.642853,37.1843999 L128.642853,37.1843999 L128.822122,37.0303678 C128.851259,37.0059282 128.879982,36.9821351 128.908228,36.9590341 L129.07146,36.8290957 C129.280096,36.667887 129.449978,36.5567883 129.548331,36.519085 C129.989831,36.3493909 130.177331,38.1244607 129.789331,38.6877853 L129.604607,38.9515184 L129.604607,38.9515184 L129.505489,39.0881636 L129.505489,39.0881636 L129.401446,39.2271456 L129.401446,39.2271456 L129.292161,39.3678277 L129.292161,39.3678277 L129.177319,39.509573 L129.177319,39.509573 L129.056603,39.651745 L129.056603,39.651745 L128.929697,39.7937067 C128.908013,39.8173141 128.886057,39.8408862 128.863824,39.8644098 L128.727042,40.0048624 C128.680302,40.0514149 128.632398,40.0976672 128.583279,40.1435129 L128.432221,40.2797247 L128.432221,40.2797247 L128.273551,40.4128611 C127.108385,41.354463 125.332441,42.0100677 122.422223,41.3249831 L122.200631,41.2701614 L122.200631,41.2701614 L122.077516,41.2312578 L122.077516,41.2312578 L121.920523,41.1762263 L121.920523,41.1762263 L121.791659,41.1270953 L121.791659,41.1270953 L121.647531,41.0679275 C121.622433,41.0572259 121.596845,41.0461032 121.570841,41.0345579 L121.410404,40.960203 C121.109256,40.8145455 120.775431,40.6173988 120.506339,40.3668112 L120.351183,40.2177761 L120.351183,40.2177761 L120.250162,40.1143932 L120.250162,40.1143932 L120.15141,40.0064505 L120.15141,40.0064505 L120.055215,39.8928005 C119.549505,39.2694079 119.165182,38.3535434 119.09884,36.3618319 L119.087361,36.0024131 L119.087361,36.0024131 L119.077204,35.5541639 L119.077204,35.5541639 L119.075411,35.3035143 L119.075411,35.3035143 L119.077815,35.081489 L119.077815,35.081489 L119.084601,34.8795831 C119.086108,34.8471362 119.087805,34.8151733 119.089696,34.7835172 L119.103403,34.595844 L119.103403,34.595844 L119.121954,34.4070283 L119.121954,34.4070283 L119.159268,34.1030582 L119.159268,34.1030582 L119.388552,32.4569736 L119.426844,32.148214 C119.522429,31.2898569 119.502849,30.4406407 118.735841,29.9731733 C117.935293,29.4873515 117.138614,29.8920684 116.435186,30.4333742 L116.274552,30.5603724 L116.274552,30.5603724 L116.117473,30.6901609 C116.091603,30.7119104 116.065891,30.7336904 116.040343,30.755458 C114.422344,32.1359019 114.133345,33.2924094 114.130345,35.234685 C114.129109,36.1668169 114.252239,36.9967714 114.393022,37.8088683 L114.515527,38.5025448 C114.677995,39.42686 114.823697,40.3593173 114.793344,41.4257818 L114.789094,41.5456548 L114.789094,41.5456548 L114.775977,41.7712392 C114.681246,43.0330523 114.264919,43.359574 113.374381,43.3488205 L113.217044,43.3437847 L113.217044,43.3437847 L113.050245,43.3328106 L113.050245,43.3328106 L112.873813,43.3165676 L112.873813,43.3165676 L112.590731,43.2837885 L112.590731,43.2837885 L112.034256,43.2087037 L112.034256,43.2087037 L111.691931,43.1876412 L111.691931,43.1876412 L111.489015,43.1690745 L111.489015,43.1690745 L111.317749,43.1478809 L111.317749,43.1478809 L111.195915,43.129417 L111.195915,43.129417 L111.068845,43.1069418 L111.068845,43.1069418 L110.9373,43.0799892 L110.9373,43.0799892 L110.802042,43.0480932 L110.802042,43.0480932 L110.663833,43.0107881 L110.663833,43.0107881 L110.523434,42.9676079 C110.499894,42.9598957 110.476295,42.9519193 110.452652,42.943669 L110.310398,42.8908024 C110.26289,42.8720328 110.215334,42.8520898 110.167858,42.8308959 L110.025796,42.7634835 C109.058404,42.2761256 108.17778,41.2304088 108.477776,38.9573286 L108.501849,38.7888055 C108.640974,37.8841022 108.756193,37.0088605 108.86562,36.1408268 L109.082117,34.4077762 C109.155287,33.8289005 109.23125,33.2466346 109.315373,32.6543848 L109.519161,31.2828439 C109.586942,30.8059992 109.638973,30.3253756 109.615348,29.8607074 C109.543849,28.4737942 108.709349,28.0214426 107.54135,28.7544613 C105.351852,30.1304264 103.765854,32.0592659 103.593354,34.7893002 C103.558354,35.3448015 103.561482,35.9199769 103.587213,36.4831492 L103.605239,36.8193589 L103.605239,36.8193589 L103.627945,37.1511673 L103.627945,37.1511673 L103.654584,37.4770541 L103.654584,37.4770541 L103.684412,37.7954987 L103.684412,37.7954987 L103.716683,38.1049806 L103.716683,38.1049806 L103.76804,38.5490724 L103.76804,38.5490724 L103.855294,39.2228716 L103.855294,39.2228716 L103.994095,40.2361158 L103.994095,40.2361158 L104.015553,40.4309198 L104.015553,40.4309198 L104.022353,40.5280454 L104.022353,40.5280454 C104.02516,40.5956018 104.027245,40.6627158 104.028549,40.7293082 L104.030055,40.9274417 L104.030055,40.9274417 L104.026515,41.1219704 L104.026515,41.1219704 L104.017573,41.3124193 C104.015612,41.3437943 104.013412,41.3749796 104.010964,41.4059652 L103.993248,41.5894029 C103.833756,42.9761712 103.119284,43.8984595 101.126356,43.3924416 C98.8228782,42.8072413 98.226061,41.5833511 98.1516156,39.4028228 L98.1448584,39.1192362 L98.1448584,39.1192362 L98.131556,38.1927723 L98.131556,38.1927723 L98.1275553,37.6983097 C98.1204881,35.9362113 98.1996917,33.8609315 98.7888578,32.0189573 L99.1424813,30.9221008 L99.1424813,30.9221008 L99.2491478,30.5804555 C99.2585882,30.5492657 99.2670497,30.5208415 99.2743574,30.4956917 L99.1649992,30.6678687 L99.1649992,30.6678687 L98.9316833,31.0459897 C98.8912649,31.1125254 98.8501104,31.1807401 98.8082645,31.2505156 L98.5492528,31.6869525 L98.5492528,31.6869525 L98.1343418,32.3994346 L98.1343418,32.3994346 L96.7674851,34.7745405 L96.7674851,34.7745405 L96.4526953,35.3143537 L96.4526953,35.3143537 L96.1385604,35.8462439 L96.1385604,35.8462439 L95.8272362,36.3645383 C95.4665028,36.9590781 95.1159094,37.5142779 94.7908613,37.9896011 C93.5295291,39.8362384 91.9921806,40.8456338 90.664309,41.4184508 L90.4179064,41.5208357 L90.4179064,41.5208357 L90.1771246,41.6135751 L90.1771246,41.6135751 L89.9426747,41.6972561 C89.9041669,41.7104807 89.8659526,41.7233522 89.8280465,41.7358831 L89.604428,41.8070767 L89.604428,41.8070767 L89.3889194,41.8706792 L89.3889194,41.8706792 L89.1822319,41.9272774 L89.1822319,41.9272774 L88.9850766,41.9774582 L88.9850766,41.9774582 L88.7087723,42.0419806 L88.7087723,42.0419806 L88.5385589,42.0786856 L88.5385589,42.0786856 L88.3803669,42.1110274 L88.3803669,42.1110274 L88.0892886,42.1656266 C87.9500371,42.1899592 87.820041,42.2099753 87.6985075,42.2262777 L87.4664887,42.2541094 C87.3927536,42.2618552 87.3225447,42.268129 87.2556271,42.2731095 L87.064513,42.2843494 L87.064513,42.2843494 L86.891737,42.2889008 L86.891737,42.2889008 L86.7358895,42.2878352 L86.7358895,42.2878352 L86.595561,42.2822242 L86.595561,42.2822242 L86.4693419,42.2731393 L86.4693419,42.2731393 L86.303385,42.2553427 L86.303385,42.2553427 L86.0773689,42.2234933 L86.0773689,42.2234933 C85.2093696,42.0980889 84.6758701,41.1610392 84.4123703,40.3951764 C83.9648151,39.0955708 83.8301486,38.3366074 83.7400801,37.1931437 L83.7078709,36.7445144 L83.7078709,36.7445144 C83.6848709,36.404131 83.7208709,36.0677286 83.7283709,35.7567058 C83.4914711,36.02533 83.2578313,36.2967609 83.0254995,36.568984 L82.3304761,37.3860157 C81.6354727,38.2013953 80.9346733,39.0057751 80.175374,39.7447654 C78.5643754,41.3113254 76.4948771,42.0204575 74.1843792,41.9383475 C72.5688805,41.8826122 71.5158815,40.634042 70.7823821,39.1490944 C69.9788828,37.5253062 69.784883,35.8845984 69.8223829,34.2523503 L69.6677321,34.5600093 L69.6677321,34.5600093 L69.4242623,35.030953 L69.4242623,35.030953 L69.166998,35.5115102 L69.166998,35.5115102 L68.9878238,35.8362597 L68.9878238,35.8362597 L68.8025172,36.1638377 L68.8025172,36.1638377 L68.6110773,36.4936665 L68.6110773,36.4936665 L68.4135038,36.8251685 L68.4135038,36.8251685 L68.2097957,37.1577659 C68.1753331,37.213258 68.1406149,37.2687717 68.105641,37.3242949 L67.8927301,37.6574525 L67.8927301,37.6574525 L67.673683,37.9902614 L67.673683,37.9902614 L67.4484992,38.322144 L67.4484992,38.322144 L67.217178,38.6525226 C67.0218529,38.927051 66.820134,39.1994109 66.6120195,39.4680982 L66.3592122,39.7886637 C66.1459811,40.054172 65.9263537,40.315406 65.7003284,40.5708611 L65.426027,40.8745371 C63.2995034,43.1799779 60.6314024,44.945371 57.4203937,44.9993102 C53.8113968,45.0595242 52.8888976,41.1635273 53.6353969,38.8510101 C53.6717248,38.7385932 53.7244568,38.6026706 53.7916078,38.4461913 L53.9029005,38.1964235 L53.9029005,38.1964235 L54.0343329,37.9180324 L54.0343329,37.9180324 L54.1844161,37.6132298 C54.2109015,37.5603513 54.2381019,37.5064644 54.2659865,37.4516153 L54.4412542,37.1113424 L54.4412542,37.1113424 L54.6314507,36.7501874 L54.6314507,36.7501874 L54.9414797,36.1741389 L54.9414797,36.1741389 L55.2767233,35.5635465 L55.2767233,35.5635465 L55.7542525,34.7085904 L55.7542525,34.7085904 L56.3834927,33.5991528 L56.3834927,33.5991528 L58.7061657,29.5587577 L58.7061657,29.5587577 L59.2775473,28.547914 L59.2775473,28.547914 L59.5106116,28.1250398 L59.5106116,28.1250398 L59.6430845,27.8787655 C59.6635331,27.8402495 59.6831458,27.803029 59.7018917,27.7671503 C60.1668255,26.8789868 59.3409755,26.3069225 57.9535994,26.1368604 L57.8398933,26.1239542 C57.7338712,26.1128072 57.6300209,26.1031661 57.5282738,26.0950888 L57.2292735,26.0756069 C55.228282,25.9753327 54.0823077,26.5566548 53.1998973,28.3190292 L53.0419463,28.6417316 L53.0419463,28.6417316 L52.7918491,29.1718378 L52.7918491,29.1718378 L51.9345473,31.0413724 L51.9345473,31.0413724 L51.7197564,31.5030353 L51.7197564,31.5030353 L51.4952988,31.9779003 L51.4952988,31.9779003 L51.2607879,32.4643052 C51.2208435,32.546242 51.1804641,32.6285903 51.1396416,32.7113156 L50.8893257,33.2119134 C50.5909374,33.8005748 50.2700499,34.404312 49.9239002,35.0112461 L49.7351021,35.3331756 L49.7351021,35.3331756 L49.5944771,35.5625651 C49.5456482,35.6408073 49.494871,35.7207525 49.4421623,35.8021724 L49.2782589,36.0506283 C49.2499815,36.0926989 49.2212255,36.1350811 49.191993,36.1777464 L49.0108962,36.436907 C48.979766,36.4805905 48.9481634,36.5245 48.9160906,36.5686071 L48.718028,36.835391 C47.3262728,38.6714891 45.1511632,40.7436465 42.3379067,41.0853984 C41.2949076,41.2590736 40.5989082,40.9744254 39.6494091,39.9035115 C38.8039904,38.9515166 38.6253766,37.3149892 38.5834107,35.9113732 L38.5754593,35.5658525 L38.5754593,35.5658525 L38.56841,34.7654137 L38.56841,34.7654137 C38.5608311,33.4302809 38.7692145,32.1835813 39.0018248,30.9515324 L39.1583833,30.1315273 C39.3663027,29.0389219 39.5596986,27.9449375 39.6039091,26.7977542 L39.5583617,26.8939739 L39.5583617,26.8939739 L39.4918219,27.0516845 L39.4918219,27.0516845 L39.1970515,27.7911569 L39.1970515,27.7911569 L39.0050423,28.2487999 L39.0050423,28.2487999 L38.8630235,28.5741083 L38.8630235,28.5741083 L38.6372886,29.0729808 L38.6372886,29.0729808 L38.4375211,29.4997011 L38.4375211,29.4997011 L38.1109506,30.1777177 L38.1109506,30.1777177 L37.908107,30.6096382 L37.908107,30.6096382 L37.4729044,31.5635613 L37.4729044,31.5635613 L37.1186304,32.3429889 L37.1186304,32.3429889 L36.8682009,32.8860116 C35.9709945,34.8138621 34.853221,37.0049793 33.4146221,38.7323786 L33.2069146,38.9759169 C33.1460283,39.0472599 33.0843259,39.1180507 33.0218045,39.18814 L32.8317809,39.3961536 L32.8317809,39.3961536 L32.6368267,39.5990609 C31.3864679,40.8660774 29.8384403,41.7719107 27.9734192,41.2914199 L27.9039546,41.2725919 L27.9039546,41.2725919 L27.7261156,41.216837 L27.7261156,41.216837 L27.6200171,41.1789613 L27.6200171,41.1789613 L27.5039834,41.1337876 L27.5039834,41.1337876 L27.3791524,41.0808413 C27.3576773,41.0713429 27.3358831,41.0615008 27.3137935,41.0513053 L27.1779002,40.9858107 C27.0156645,40.9042669 26.841276,40.8044327 26.6628667,40.6829179 L26.5091493,40.5733739 C25.6860946,39.959978 24.8275648,38.8732616 24.710422,36.9893516 C24.6268221,35.642747 24.7596775,34.2163922 24.9303387,32.8231329 L25.1485533,31.1156199 L25.1485533,31.1156199 L25.182292,30.8031758 C25.263241,29.9334176 25.2131716,29.065733 24.4169223,28.6390096 C23.5895036,28.1947485 22.790701,28.6068522 22.0711273,29.1695657 L21.8999767,29.3071473 L21.8999767,29.3071473 L21.7320241,29.4483442 L21.7320241,29.4483442 L21.5674247,29.5909884 C21.4412053,29.7014637 21.3233381,29.8068209 21.2133006,29.9079771 L21.0035105,30.1049601 L21.0035105,30.1049601 L20.8136711,30.2923713 C20.0028897,31.1166311 19.7698996,31.6996781 19.7338697,32.7101821 L19.7289504,32.9420467 L19.7289504,32.9420467 L19.7295867,33.1896146 L19.7295867,33.1896146 L19.7348499,33.4545164 C19.736061,33.5002018 19.7374263,33.5466774 19.7389263,33.5939771 C19.7626105,34.3215742 19.8231922,34.9656511 19.8897782,35.5792394 L19.9902989,36.4833844 C20.0984108,37.4773139 20.1802943,38.4602082 20.092926,39.6775845 L20.0782551,39.8689263 L20.0782551,39.8689263 L20.0511795,40.1533384 L20.0511795,40.1533384 L20.0286596,40.3401846 L20.0286596,40.3401846 L20.0016922,40.5239987 L20.0016922,40.5239987 L19.96953,40.7040757 C19.7653124,41.742254 19.2577963,42.5536968 17.779428,42.508639 C17.7014933,42.5064754 17.5649575,42.4796416 17.3956486,42.4371715 L17.1784,42.3792802 L17.1784,42.3792802 L16.9396071,42.3098471 C16.898564,42.2975058 16.8570364,42.2848281 16.815231,42.2718864 L16.5627181,42.191645 L16.5627181,42.191645 L16.1931433,42.0669871 C16.1537255,42.0532112 16.1150631,42.0395325 16.0773626,42.0260234 L15.8643559,41.9475813 L15.8643559,41.9475813 L15.6843538,41.876677 C15.6042569,41.8436874 15.540256,41.8148255 15.49793,41.7920424 C14.0232646,41.002459 13.7399315,40.2407432 13.7934129,39.1194021 L13.8052986,38.9291156 L13.8052986,38.9291156 L13.832899,38.6303268 L13.832899,38.6303268 L13.8833249,38.2049119 L13.8833249,38.2049119 L13.9892959,37.3771507 L13.9892959,37.3771507 L14.0194313,37.1192347 C14.0695221,36.6732619 14.1201254,36.2729729 14.171196,35.9017524 L14.2481467,35.3646463 C14.2610283,35.2780698 14.2739378,35.192791 14.2868743,35.10855 L14.4040158,34.3713965 L14.4040158,34.3713965 L14.602193,33.1531302 L14.602193,33.1531302 L14.6823948,32.6330907 C14.7360268,32.2753168 14.7899796,31.8926116 14.8442081,31.46836 L14.8849305,31.1421216 C14.9629304,30.5041515 15.0274304,29.8422949 14.9429305,29.2336853 C14.7699306,27.9846175 13.5239317,27.649708 12.3964327,28.4140778 C10.0539347,30.0020362 8.79243578,32.1045508 8.49893604,34.8957945 C8.45182797,35.3441247 8.42658913,35.8101953 8.41549317,36.2775754 L8.40926571,36.6781243 C8.40822427,36.811492 8.40815715,36.9445834 8.40888413,37.0770152 L8.41326721,37.4719486 L8.41326721,37.4719486 L8.42641033,38.0518986 L8.42641033,38.0518986 L8.47907395,39.6296774 L8.47907395,39.6296774 L8.48887599,40.0757117 C8.49430711,40.4965994 8.48480091,40.8381672 8.44393608,41.0654929 C8.23093627,42.2483751 7.88493657,42.8146855 6.86593745,43.4218022 C6.56993771,43.5986291 6.17349361,43.5405715 5.72179029,43.4294326 L5.13164891,43.2760139 L5.13164891,43.2760139 L5.00843906,43.2456388 C3.31777386,42.8398991 2.84444093,41.9137421 2.70547809,40.844487 L2.68526224,40.6650175 L2.68526224,40.6650175 L2.67033002,40.4832863 L2.67033002,40.4832863 L2.65977305,40.2996814 L2.65977305,40.2996814 L2.65015406,40.0216103 L2.65015406,40.0216103 L2.63231256,38.8885085 L2.63231256,38.8885085 L2.63042367,38.5771412 C2.6304278,38.5236453 2.63060365,38.4693533 2.63096958,38.4142718 L2.63559309,38.0743624 C2.63679281,38.0161497 2.63821935,37.9571609 2.63989106,37.8974028 L2.65301043,37.5296751 L2.65301043,37.5296751 L2.67289563,37.143804 L2.67289563,37.143804 L2.7004282,36.7401112 C2.79537853,35.502622 3.00546926,34.0288829 3.43780773,32.357981 L3.70149575,31.3927646 L3.70149575,31.3927646 L4.26129771,29.4062687 L4.26129771,29.4062687 L4.47206064,28.6728294 L4.47206064,28.6728294 L4.8479392,27.285438 L4.8479392,27.285438 C4.6457489,27.3339221 4.29306326,27.6261295 3.94675361,27.9540064 L3.75943264,28.1351353 L3.75943264,28.1351353 L3.57903359,28.315836 L3.57903359,28.315836 L3.33378891,28.5696712 L3.33378891,28.5696712 L3.13594068,28.7803384 L3.13594068,28.7803384 L3.03580462,28.8920279 L3.03580462,28.8920279 L2.7097537,29.2731139 L2.7097537,29.2731139 L2.55257469,29.4536481 L2.55257469,29.4536481 L2.38211969,29.6430138 C1.82274293,30.25157 1.08387579,30.9205075 0.357443087,30.9614796 C-0.0870565282,30.986859 -0.164056462,29.072451 0.396943053,28.1592879 C0.937317585,27.2777247 2.39231632,26.2550815 3.68447146,25.5536472 L4.00349413,25.3852479 C4.26547999,25.2509377 4.51650089,25.1322409 4.7468141,25.0333376 L4.88529194,24.9749996 L4.88529194,24.9749996 L4.98343325,24.9290397 L4.98343325,24.9290397 L5.1591882,24.8519543 L5.1591882,24.8519543 L5.4174387,24.7464339 L5.4174387,24.7464339 L5.66307552,24.652744 L5.66307552,24.652744 L5.95153445,24.5497861 L5.95153445,24.5497861 L6.28128052,24.440443 L6.28128052,24.440443 L6.52329052,24.365424 L6.52329052,24.365424 L6.78251332,24.2897026 L6.78251332,24.2897026 L6.9184374,24.2518454 C8.20743629,23.8980258 8.87543571,24.2045699 9.09893552,25.59845 C9.20448088,26.2621163 9.24643126,26.8497459 9.26168847,27.3658362 L9.26831037,27.6993473 L9.26831037,27.6993473 L9.26872876,28.1605176 L9.26872876,28.1605176 L9.26428248,28.7039861 L9.26428248,28.7039861 L9.26538165,28.9457758 C9.26652215,29.0230945 9.26857173,29.0971519 9.27193537,29.1679973 L9.75988283,28.5395451 L9.75988283,28.5395451 L10.2430544,27.9383767 L10.2430544,27.9383767 L10.4389344,27.6910119 C11.955433,25.7681441 13.6884315,24.2185037 16.0624295,23.6472169 C17.5554282,23.2879233 18.5089274,23.618354 18.975427,25.0097459 C19.1711768,25.5932248 19.3246767,26.1964848 19.470739,26.8236935 L19.7331383,27.9794341 C19.7930063,28.2424131 19.8550262,28.5096241 19.9214261,28.7813336 L22.2974241,26.0000427 L22.2974241,26.0000427 C23.3329232,24.7838189 24.5399221,23.9005139 26.0439208,23.4829968 C27.9779192,22.946047 29.1769181,23.5651069 29.358918,25.5128565 C29.4587096,26.5840193 29.4814179,27.6967381 29.4926172,28.8160591 L29.5047289,30.1601761 C29.517213,31.279186 29.5444178,32.3908163 29.6519177,33.4601129 C29.7809176,34.7514798 29.9609174,36.0109981 30.472917,37.1461071 C30.7736988,37.8103244 31.3368436,37.6386175 31.9565711,37.0481725 L32.0855304,36.9201734 L32.0855304,36.9201734 L32.2156995,36.7810457 L32.2156995,36.7810457 L32.3466733,36.6316104 L32.3466733,36.6316104 L32.4780469,36.4726886 L32.4780469,36.4726886 L32.6094152,36.3051013 L32.6094152,36.3051013 C32.7459957,36.1061109 32.8848509,35.8949431 33.0252615,35.6736502 L33.2369538,35.3343736 L33.2369538,35.3343736 L33.4504396,34.9814484 C33.48614,34.9215757 33.5218927,34.8611984 33.5576864,34.8003486 L33.7728505,34.4298366 C33.8087632,34.3672252 33.8446945,34.3042053 33.880633,34.2408092 L34.0962616,33.8561735 L34.0962616,33.8561735 L34.3115253,33.4640459 L34.3115253,33.4640459 L34.6325566,32.8651742 L34.6325566,32.8651742 L34.8445476,32.4610508 L34.8445476,32.4610508 L35.1581407,31.8514003 L35.1581407,31.8514003 L35.4648428,31.2422086 L35.4648428,31.2422086 L35.762833,30.6386705 L35.762833,30.6386705 L36.0502903,30.0459807 L36.0502903,30.0459807 L36.4140346,29.2815812 L36.4140346,29.2815812 L36.9090289,28.2153937 L36.9090289,28.2153937 L37.3303273,27.2826404 L37.3303273,27.2826404 L37.6146037,26.6372564 L37.6146037,26.6372564 L37.829155,26.1374438 L37.829155,26.1374438 L40.822908,18.9385795 L40.822908,18.9385795 Z M46.3630032,0.402064283 C47.4281938,-0.126743418 48.3834777,-0.0498338971 49.0955057,0.157177442 L49.2683677,0.211365491 L49.2683677,0.211365491 L49.430631,0.269323007 L49.430631,0.269323007 L49.5818326,0.329398546 L49.5818326,0.329398546 L49.7215095,0.389940668 L49.7215095,0.389940668 L49.8491986,0.44929793 L49.8491986,0.44929793 L50.2630369,0.657463659 L50.2630369,0.657463659 L50.316517,0.680784656 C50.3241934,0.683724092 50.331245,0.686166894 50.337662,0.688078656 L50.3549998,0.692186416 C50.5974996,0.731499707 50.7699994,0.798183011 50.8914993,0.86685686 C51.3574989,1.13110189 52.5699979,2.74692791 52.1849982,3.60584867 L52.1580785,3.66361494 L52.1580785,3.66361494 L52.090505,3.79683848 L52.090505,3.79683848 L52.0090296,3.94730512 L52.0090296,3.94730512 L51.8255408,4.26951238 L51.8255408,4.26951238 L51.5489028,4.74284875 L51.5489028,4.74284875 L51.4939736,4.84381611 C51.4910938,4.85005211 51.4893988,4.85446864 51.4889988,4.85690706 C51.4861655,4.87283143 51.4994988,4.88803699 51.5179988,4.90278178 L51.5779987,4.94589185 C51.595832,4.95997313 51.607832,4.97385166 51.6029987,4.98778548 L51.5958069,5.02013721 L51.5958069,5.02013721 L51.5902317,5.07666353 C51.5895706,5.08944216 51.5890769,5.10423535 51.5888005,5.12154672 L51.5898681,5.24880204 L51.5898681,5.24880204 L51.5974987,5.4490946 L51.5974987,5.4490946 C51.6018737,5.54389437 51.6123424,5.63483746 51.6249831,5.72679915 L51.6654987,6.01061529 C51.6916236,6.20836363 51.7107486,6.42968751 51.6914986,6.71358919 C51.6524987,7.2808949 51.4139989,7.70587655 51.0614992,8.04874816 C51.0027492,8.10581049 50.9276798,8.16580335 50.8436568,8.22627311 L50.7118276,8.31702872 L50.7118276,8.31702872 L50.5720922,8.40665946 L50.5720922,8.40665946 L50.4299748,8.49332512 L50.4299748,8.49332512 L49.948172,8.77353253 L49.948172,8.77353253 L49.8770095,8.81776949 C49.8392086,8.84279646 49.8219169,8.85848584 49.8325002,8.86238399 C49.8955002,8.88676818 50.2534999,8.85442181 50.3634998,8.81461088 L50.3909496,8.80382446 L50.3909496,8.80382446 L50.4640396,8.77016471 L50.4640396,8.77016471 L50.7819825,8.60762616 C50.7970346,8.60029762 50.8065962,8.59613844 50.8086949,8.59636006 L50.7160395,8.68372158 C50.61018,8.77873099 50.4187305,8.93235935 50.147,9.04949535 C49.9658463,9.12758602 49.8202665,9.14504158 49.7013631,9.14677572 L49.4964885,9.14258986 C49.4528438,9.1429568 49.4143852,9.146879 49.3800006,9.15997067 C48.3805015,9.54265321 46.682003,9.20376269 45.6130039,7.25800362 C44.1908897,4.67211162 44.1560525,3.03778398 44.6714637,1.9736496 L44.7433724,1.83511045 C44.7933874,1.744959 44.8474561,1.65917885 44.9049907,1.57750216 L44.9938184,1.45803123 L44.9938184,1.45803123 L45.0874039,1.34451461 L45.0874039,1.34451461 L45.1853064,1.23675139 L45.1853064,1.23675139 L45.287085,1.1345407 L45.287085,1.1345407 L45.3922986,1.03768165 C45.4278934,1.00626492 45.4639872,0.975706645 45.5005066,0.945973349 L45.6112678,0.859214913 C45.6299163,0.845156502 45.6486528,0.831295965 45.6674681,0.817629118 L45.7812326,0.737918816 L45.7812326,0.737918816 L45.8964482,0.662656162 L45.8964482,0.662656162 L46.012674,0.591640268 L46.012674,0.591640268 L46.1879422,0.492639664 L46.1879422,0.492639664 L46.3047645,0.431361792 C46.3242027,0.421449699 46.3436186,0.411685257 46.3630032,0.402064283 Z"
                  id="logo-mirum"
                />
              </g>
            </g>
          </g>
        </svg>